<svg viewBox="0 0 330 200" xmlns="http://www.w3.org/2000/svg"><g><g><g><g><g><line x1="61.77000045776367" y1="178.01999950408936" x2="56.77000045776367" y2="178.01999950408936" style="visibility: inherit;" fill="rgb(0, 0, 0)" stroke="rgb(204, 204, 204)" stroke-width="1px"></line><line x1="61.77000045776367" y1="158.2399995591901" x2="56.77000045776367" y2="158.2399995591901" style="visibility: inherit;" fill="rgb(0, 0, 0)" stroke="rgb(204, 204, 204)" stroke-width="1px"></line><line x1="61.77000045776367" y1="138.45999961429172" x2="56.77000045776367" y2="138.45999961429172" style="visibility: inherit;" fill="rgb(0, 0, 0)" stroke="rgb(204, 204, 204)" stroke-width="1px"></line><line x1="61.77000045776367" y1="118.67999966939291" x2="56.77000045776367" y2="118.67999966939291" style="visibility: inherit;" fill="rgb(0, 0, 0)" stroke="rgb(204, 204, 204)" stroke-width="1px"></line><line x1="61.77000045776367" y1="98.8999997244941" x2="56.77000045776367" y2="98.8999997244941" style="visibility: inherit;" fill="rgb(0, 0, 0)" stroke="rgb(204, 204, 204)" stroke-width="1px"></line><line x1="61.77000045776367" y1="79.11999977959526" x2="56.77000045776367" y2="79.11999977959526" style="visibility: inherit;" fill="rgb(0, 0, 0)" stroke="rgb(204, 204, 204)" stroke-width="1px"></line><line x1="61.77000045776367" y1="59.33999983469646" x2="56.77000045776367" y2="59.33999983469646" style="visibility: inherit;" fill="rgb(0, 0, 0)" stroke="rgb(204, 204, 204)" stroke-width="1px"></line><line x1="61.77000045776367" y1="39.55999988979764" x2="56.77000045776367" y2="39.55999988979764" style="visibility: inherit;" fill="rgb(0, 0, 0)" stroke="rgb(204, 204, 204)" stroke-width="1px"></line><line x1="61.77000045776367" y1="19.779999944898833" x2="56.77000045776367" y2="19.779999944898833" style="visibility: inherit;" fill="rgb(0, 0, 0)" stroke="rgb(204, 204, 204)" stroke-width="1px"></line><line x1="61.77000045776367" y1="0" x2="56.77000045776367" y2="0" style="visibility: inherit;" fill="rgb(0, 0, 0)" stroke="rgb(204, 204, 204)" stroke-width="1px"></line></g><g transform="translate(51.77000045776367, 0)"><text style="text-anchor: end; visibility: hidden; font-family: &quot;Helvetica Neue&quot;, sans-serif; font-size: 12px; font-weight: 200;" x="0" y="178.01999950408936" dx="0em" dy="0.3em" fill="rgb(50, 49, 63)" stroke="none" stroke-width="1px">-2.02</text><text style="text-anchor: end; visibility: inherit; font-family: &quot;Helvetica Neue&quot;, sans-serif; font-size: 12px; font-weight: 200;" x="0" y="158.2399995591901" dx="0em" dy="0.3em" fill="rgb(50, 49, 63)" stroke="none" stroke-width="1px">-2.01</text><text style="text-anchor: end; visibility: hidden; font-family: &quot;Helvetica Neue&quot;, sans-serif; font-size: 12px; font-weight: 200;" x="0" y="138.45999961429172" dx="0em" dy="0.3em" fill="rgb(50, 49, 63)" stroke="none" stroke-width="1px">-2</text><text style="text-anchor: end; visibility: inherit; font-family: &quot;Helvetica Neue&quot;, sans-serif; font-size: 12px; font-weight: 200;" x="0" y="118.67999966939291" dx="0em" dy="0.3em" fill="rgb(50, 49, 63)" stroke="none" stroke-width="1px">-1.99</text><text style="text-anchor: end; visibility: hidden; font-family: &quot;Helvetica Neue&quot;, sans-serif; font-size: 12px; font-weight: 200;" x="0" y="98.8999997244941" dx="0em" dy="0.3em" fill="rgb(50, 49, 63)" stroke="none" stroke-width="1px">-1.98</text><text style="text-anchor: end; visibility: inherit; font-family: &quot;Helvetica Neue&quot;, sans-serif; font-size: 12px; font-weight: 200;" x="0" y="79.11999977959526" dx="0em" dy="0.3em" fill="rgb(50, 49, 63)" stroke="none" stroke-width="1px">-1.97</text><text style="text-anchor: end; visibility: hidden; font-family: &quot;Helvetica Neue&quot;, sans-serif; font-size: 12px; font-weight: 200;" x="0" y="59.33999983469646" dx="0em" dy="0.3em" fill="rgb(50, 49, 63)" stroke="none" stroke-width="1px">-1.96</text><text style="text-anchor: end; visibility: inherit; font-family: &quot;Helvetica Neue&quot;, sans-serif; font-size: 12px; font-weight: 200;" x="0" y="39.55999988979764" dx="0em" dy="0.3em" fill="rgb(50, 49, 63)" stroke="none" stroke-width="1px">-1.95</text><text style="text-anchor: end; visibility: hidden; font-family: &quot;Helvetica Neue&quot;, sans-serif; font-size: 12px; font-weight: 200;" x="0" y="19.779999944898833" dx="0em" dy="0.3em" fill="rgb(50, 49, 63)" stroke="none" stroke-width="1px">-1.94</text><text style="text-anchor: end; visibility: hidden; font-family: &quot;Helvetica Neue&quot;, sans-serif; font-size: 12px; font-weight: 200;" x="0" y="0" dx="0em" dy="0.3em" fill="rgb(50, 49, 63)" stroke="none" stroke-width="1px">-1.93</text></g><line x1="61.77000045776367" y1="0" x2="61.77000045776367" y2="178.01999950408936" fill="rgb(0, 0, 0)" stroke="rgb(204, 204, 204)" stroke-width="1px"></line></g></g><g transform="translate(61, 0)" clip-path="url(#clip_0)"><clipPath id="clip_0"><rect width="268" height="178"></rect></clipPath><g><g><g><line x1="0" y1="0" x2="0" y2="178.01999950408936" fill="rgb(0, 0, 0)" stroke="rgb(60, 60, 60)" stroke-width="1px" opacity="0.25"></line><line x1="22.352499961853027" y1="0" x2="22.352499961853027" y2="178.01999950408936" fill="rgb(0, 0, 0)" stroke="rgb(60, 60, 60)" stroke-width="1px" opacity="0.25"></line><line x1="44.704999923706055" y1="0" x2="44.704999923706055" y2="178.01999950408936" fill="rgb(0, 0, 0)" stroke="rgb(60, 60, 60)" stroke-width="1px" opacity="0.25"></line><line x1="67.05749988555908" y1="0" x2="67.05749988555908" y2="178.01999950408936" fill="rgb(0, 0, 0)" stroke="rgb(60, 60, 60)" stroke-width="1px" opacity="0.25"></line><line x1="89.40999984741211" y1="0" x2="89.40999984741211" y2="178.01999950408936" fill="rgb(0, 0, 0)" stroke="rgb(60, 60, 60)" stroke-width="1px" opacity="0.25"></line><line x1="111.76249980926514" y1="0" x2="111.76249980926514" y2="178.01999950408936" fill="rgb(0, 0, 0)" stroke="rgb(60, 60, 60)" stroke-width="1px" opacity="0.25"></line><line x1="134.11499977111816" y1="0" x2="134.11499977111816" y2="178.01999950408936" fill="rgb(0, 0, 0)" stroke="rgb(60, 60, 60)" stroke-width="1px" opacity="0.25"></line><line x1="156.4674997329712" y1="0" x2="156.4674997329712" y2="178.01999950408936" fill="rgb(0, 0, 0)" stroke="rgb(60, 60, 60)" stroke-width="1px" opacity="0.25"></line><line x1="178.81999969482422" y1="0" x2="178.81999969482422" y2="178.01999950408936" fill="rgb(0, 0, 0)" stroke="rgb(60, 60, 60)" stroke-width="1px" opacity="0.25"></line><line x1="201.17249965667725" y1="0" x2="201.17249965667725" y2="178.01999950408936" fill="rgb(0, 0, 0)" stroke="rgb(60, 60, 60)" stroke-width="1px" opacity="0.25"></line><line x1="223.52499961853027" y1="0" x2="223.52499961853027" y2="178.01999950408936" fill="rgb(0, 0, 0)" stroke="rgb(60, 60, 60)" stroke-width="1px" opacity="0.25"></line><line x1="245.8774995803833" y1="0" x2="245.8774995803833" y2="178.01999950408936" fill="rgb(0, 0, 0)" stroke="rgb(60, 60, 60)" stroke-width="1px" opacity="0.25"></line><line x1="268.2299995422363" y1="0" x2="268.2299995422363" y2="178.01999950408936" fill="rgb(0, 0, 0)" stroke="rgb(60, 60, 60)" stroke-width="1px" opacity="0.25"></line></g><g><line x1="0" y1="178.01999950408936" x2="268.2299995422363" y2="178.01999950408936" fill="rgb(0, 0, 0)" stroke="rgb(60, 60, 60)" stroke-width="1px" opacity="0.25"></line><line x1="0" y1="158.2399995591901" x2="268.2299995422363" y2="158.2399995591901" fill="rgb(0, 0, 0)" stroke="rgb(60, 60, 60)" stroke-width="1px" opacity="0.25"></line><line x1="0" y1="138.45999961429172" x2="268.2299995422363" y2="138.45999961429172" fill="rgb(0, 0, 0)" stroke="rgb(60, 60, 60)" stroke-width="1px" opacity="0.25"></line><line x1="0" y1="118.67999966939291" x2="268.2299995422363" y2="118.67999966939291" fill="rgb(0, 0, 0)" stroke="rgb(60, 60, 60)" stroke-width="1px" opacity="0.25"></line><line x1="0" y1="98.8999997244941" x2="268.2299995422363" y2="98.8999997244941" fill="rgb(0, 0, 0)" stroke="rgb(60, 60, 60)" stroke-width="1px" opacity="0.25"></line><line x1="0" y1="79.11999977959526" x2="268.2299995422363" y2="79.11999977959526" fill="rgb(0, 0, 0)" stroke="rgb(60, 60, 60)" stroke-width="1px" opacity="0.25"></line><line x1="0" y1="59.33999983469646" x2="268.2299995422363" y2="59.33999983469646" fill="rgb(0, 0, 0)" stroke="rgb(60, 60, 60)" stroke-width="1px" opacity="0.25"></line><line x1="0" y1="39.55999988979764" x2="268.2299995422363" y2="39.55999988979764" fill="rgb(0, 0, 0)" stroke="rgb(60, 60, 60)" stroke-width="1px" opacity="0.25"></line><line x1="0" y1="19.779999944898833" x2="268.2299995422363" y2="19.779999944898833" fill="rgb(0, 0, 0)" stroke="rgb(60, 60, 60)" stroke-width="1px" opacity="0.25"></line><line x1="0" y1="0" x2="268.2299995422363" y2="0" fill="rgb(0, 0, 0)" stroke="rgb(60, 60, 60)" stroke-width="1px" opacity="0.25"></line></g></g></g><g><g><line x1="0" y1="-3817.5399893654685" x2="268.2299995422363" y2="-3817.5399893654685" fill="rgb(0, 0, 0)" stroke="rgb(153, 153, 153)" stroke-width="1.5px"></line></g></g><g><g><line x1="22.352499961853027" y1="0" x2="22.352499961853027" y2="178.01999950408936" fill="rgb(0, 0, 0)" stroke="rgb(153, 153, 153)" stroke-width="1.5px"></line></g></g><g><g><g><g><g><path style="fill: none;" stroke="rgb(255, 112, 67)" stroke-width="2px" d="M22.352499961853027,138.45999961429172L24.58774995803833,98.067707137863L26.822999954223633,102.02449290970839L29.058249950408936,107.86069537584468L31.29349994659424,100.97154386525095L33.52874994277954,78.10950042312133L35.763999938964844,74.45543617288443L37.99924993515015,70.31774545306006L40.23449993133545,46.30022637655864L42.46974992752075,33.23959182052431L44.704999923706055,46.894082544073825L46.94024991989136,83.60035092880163L49.17549991607666,63.98057818839709L51.41074991226196,52.22512726814682L53.645999908447266,78.02797891691594L55.88124990463257,71.73785124847636L58.11649990081787,65.98653038774914L60.351749897003174,76.77941274462894L62.58699989318848,73.36380020061058L64.82224988937378,68.14969092614125L67.05749988555908,76.88959637316212L69.29274988174438,71.05651946042084L71.52799987792969,57.271032194655504L73.76324987411499,36.736097107773446L75.9984998703003,43.40409074430093L78.2337498664856,81.42651915161217L80.4689998626709,104.23993468599546L82.7042498588562,117.92796906305675L84.9394998550415,116.64640875604346L87.1747498512268,98.07543880618442L89.40999984741211,69.13082697019254L91.64524984359741,69.56609387487161L93.88049983978271,87.62928497788448L96.11574983596802,91.34634910336415L98.35099983215332,103.07105404740778L100.58624982833862,117.22663242016804L102.82149982452393,116.62117856487043L105.05674982070923,97.26906775457437L107.29199981689453,86.84460961374202L109.52724981307983,60.01881098317263L111.76249980926514,45.11004580705509L113.99774980545044,75.72484320890634L116.23299980163574,90.13772542320164L118.46824979782104,77.81866536755001L120.70349979400635,66.07556747433105L122.93874979019165,79.9964981184219L125.17399978637695,74.89868823226521L127.40924978256226,54.829209138622474L129.64449977874756,71.2707321674227L131.87974977493286,68.47642036512195L134.11499977111816,58.88784085122876L136.35024976730347,73.31033986869957L138.58549976348877,72.07380157933297L140.82074975967407,52.34304017668832L143.05599975585938,58.30661346741911L145.29124975204468,90.36796792618073L147.52649974822998,99.71474290162162L149.76174974441528,105.32280788688503L151.9969997406006,118.57768457784857L154.2322497367859,110.70662572744897L156.4674997329712,86.2040093359876L158.7027497291565,76.64524401406773L160.9379997253418,80.40435687622397L163.1732497215271,67.6269823807558L165.4084997177124,70.24616670938806L167.6437497138977,77.35605314563217L169.878999710083,72.52327859656704L172.1142497062683,89.79916627445635L174.3494997024536,89.4835185291697L176.58474969863892,79.7997578266899L178.81999969482422,72.80269310848935L181.05524969100952,67.41764598085707L183.29049968719482,51.13182075883297L185.52574968338013,31.470287925812983L187.76099967956543,31.936928200841066L189.99624967575073,36.56857422659897L192.23149967193604,55.5671180331383L194.46674966812134,66.5706729909541L196.70199966430664,58.53562939737918L198.93724966049194,70.329730758426L201.17249965667725,63.16468065128683L203.40774965286255,47.78880459048605L205.64299964904785,63.090493222075494L207.87824964523315,74.6451229944535L210.11349964141846,91.46784423929557L212.34874963760376,81.78149590497995L214.58399963378906,67.66212314579488L216.81924962997437,71.8496307912314L219.05449962615967,74.75780102299066L221.28974962234497,83.22788729782235L223.52499961853027,67.7387210108957L225.76024961471558,58.44522123873982L227.99549961090088,71.46229415995468L230.23074960708618,88.37133864188407L232.46599960327148,97.32995703432965L234.7012495994568,72.24396663655584L236.9364995956421,68.26921839440874L239.1717495918274,68.25789172415563L241.4069995880127,57.17434404387568L243.642249584198,68.32624556800131" fill="none"></path></g></g></g></g><g opacity="0.2"><g><g><g><path style="fill: none;" stroke="rgb(255, 112, 67)" stroke-width="2px" d="M22.352499961853027,138.45999961429172L24.58774995803833,73.83233165200646L26.822999954223633,105.82300725067986L29.058249950408936,114.72406947602148L31.29349994659424,91.97706765302007L33.52874994277954,46.48306400701725L35.763999938964844,69.23006583001867L37.99924993515015,64.28495266172641L40.23449993133545,10.87905090162485L42.46974992752075,13.846071643405395L44.704999923706055,67.25197340350695L46.94024991989136,138.45999961429172L49.17549991607666,34.6149810398951L51.41074991226196,34.6149810398951L53.645999908447266,116.70192610655913L55.88124990463257,62.30709603118876L58.11649990081787,57.36198286289651L60.351749897003174,92.9659959682889L62.58699989318848,68.24090171877577L64.82224988937378,60.329003604677055L67.05749988555908,89.99897522650836L69.29274988174438,62.30709603118876L71.52799987792969,36.59307346640682L73.76324987411499,5.933937733332613L75.9984998703003,53.40603380584716L78.2337498664856,138.45999961429172L80.4689998626709,138.45999961429172L82.7042498588562,138.45999961429172L84.9394998550415,114.72406947602148L87.1747498512268,70.2189941452875L89.40999984741211,25.713918814553466L91.64524984359741,70.2189941452875L93.88049983978271,114.72406947602148L96.11574983596802,96.92194502533826L98.35099983215332,120.65811095958256L100.58624982833862,138.45999961429172L102.82149982452393,115.7129977912903L105.05674982070923,68.24090171877577L107.29199981689453,71.20792246055632L109.52724981307983,19.780113126966484L111.76249980926514,22.74689807277295L113.99774980545044,121.64703927485138L116.23299980163574,111.75704873424094L118.46824979782104,59.34007528940823L120.70349979400635,48.46092063755489L122.93874979019165,100.87789408238761L125.17399978637695,67.25197340350695L127.40924978256226,24.724990499284644L129.64449977874756,95.93301671006944L131.87974977493286,64.28495266172641L134.11499977111816,44.504971580505526L136.35024976730347,94.94408839480062L138.58549976348877,70.2189941452875L140.82074975967407,22.74689807277295L143.05599975585938,67.25197340350695L145.29124975204468,138.45999961429172L147.52649974822998,113.73490536477858L149.76174974441528,113.73490536477858L151.9969997406006,138.45999961429172L154.2322497367859,98.90003745184998L156.4674997329712,49.45008474879779L158.7027497291565,62.30709603118876L160.9379997253418,86.04302616945898L163.1732497215271,48.46092063755489L165.4084997177124,74.17494320233685L167.6437497138977,88.02088279999663L169.878999710083,65.27411677296931L172.1142497062683,115.7129977912903L174.3494997024536,89.01004691123954L176.58474969863892,65.27411677296931L178.81999969482422,62.30709603118876L181.05524969100952,59.34007528940823L183.29049968719482,26.703082925796366L185.52574968338013,1.9779886762832461L187.76099967956543,32.63688861338338L189.99624967575073,43.5160432652367L192.23149967193604,84.06493374294728L194.46674966812134,83.07600542767845L196.70199966430664,46.48306400701725L198.93724966049194,88.02088279999663L201.17249965667725,52.41710549057834L203.40774965286255,24.724990499284644L205.64299964904785,86.04302616945898L207.87824964523315,91.97706765302007L210.11349964141846,116.70192610655913L212.34874963760376,67.25197340350695L214.58399963378906,46.48306400701725L216.81924962997437,78.1308922593862L219.05449962615967,79.12005637062911L221.28974962234497,95.93301671006944L223.52499961853027,44.504971580505526L225.76024961471558,44.504971580505526L227.99549961090088,90.98790354177719L230.23074960708618,113.73490536477858L232.46599960327148,110.76788462299805L234.7012495994568,34.6149810398951L236.9364995956421,62.30709603118876L239.1717495918274,68.24090171877577L241.4069995880127,40.54902252345619L243.642249584198,85.05409785419019" fill="none"></path></g></g></g></g></g></g><g transform="translate(61, 178)" clip-path="url(#clip_1)"><clipPath id="clip_1"><rect width="268" height="21"></rect></clipPath><g><g><line x1="0" y1="0" x2="0" y2="5" style="visibility: inherit;" fill="rgb(0, 0, 0)" stroke="rgb(204, 204, 204)" stroke-width="1px"></line><line x1="22.352499961853027" y1="0" x2="22.352499961853027" y2="5" style="visibility: inherit;" fill="rgb(0, 0, 0)" stroke="rgb(204, 204, 204)" stroke-width="1px"></line><line x1="44.704999923706055" y1="0" x2="44.704999923706055" y2="5" style="visibility: inherit;" fill="rgb(0, 0, 0)" stroke="rgb(204, 204, 204)" stroke-width="1px"></line><line x1="67.05749988555908" y1="0" x2="67.05749988555908" y2="5" style="visibility: inherit;" fill="rgb(0, 0, 0)" stroke="rgb(204, 204, 204)" stroke-width="1px"></line><line x1="89.40999984741211" y1="0" x2="89.40999984741211" y2="5" style="visibility: inherit;" fill="rgb(0, 0, 0)" stroke="rgb(204, 204, 204)" stroke-width="1px"></line><line x1="111.76249980926514" y1="0" x2="111.76249980926514" y2="5" style="visibility: inherit;" fill="rgb(0, 0, 0)" stroke="rgb(204, 204, 204)" stroke-width="1px"></line><line x1="134.11499977111816" y1="0" x2="134.11499977111816" y2="5" style="visibility: inherit;" fill="rgb(0, 0, 0)" stroke="rgb(204, 204, 204)" stroke-width="1px"></line><line x1="156.4674997329712" y1="0" x2="156.4674997329712" y2="5" style="visibility: inherit;" fill="rgb(0, 0, 0)" stroke="rgb(204, 204, 204)" stroke-width="1px"></line><line x1="178.81999969482422" y1="0" x2="178.81999969482422" y2="5" style="visibility: inherit;" fill="rgb(0, 0, 0)" stroke="rgb(204, 204, 204)" stroke-width="1px"></line><line x1="201.17249965667725" y1="0" x2="201.17249965667725" y2="5" style="visibility: inherit;" fill="rgb(0, 0, 0)" stroke="rgb(204, 204, 204)" stroke-width="1px"></line><line x1="223.52499961853027" y1="0" x2="223.52499961853027" y2="5" style="visibility: inherit;" fill="rgb(0, 0, 0)" stroke="rgb(204, 204, 204)" stroke-width="1px"></line><line x1="245.8774995803833" y1="0" x2="245.8774995803833" y2="5" style="visibility: inherit;" fill="rgb(0, 0, 0)" stroke="rgb(204, 204, 204)" stroke-width="1px"></line><line x1="268.2299995422363" y1="0" x2="268.2299995422363" y2="5" style="visibility: inherit;" fill="rgb(0, 0, 0)" stroke="rgb(204, 204, 204)" stroke-width="1px"></line></g><g transform="translate(0, 8)"><text style="text-anchor: middle; visibility: hidden; font-family: &quot;Helvetica Neue&quot;, sans-serif; font-size: 12px; font-weight: 200;" x="0" y="0" dx="0em" dy="0.95em" fill="rgb(50, 49, 63)" stroke="none" stroke-width="1px">-1k</text><text style="text-anchor: middle; visibility: hidden; font-family: &quot;Helvetica Neue&quot;, sans-serif; font-size: 12px; font-weight: 200;" x="22.352499961853027" y="0" dx="0em" dy="0.95em" fill="rgb(50, 49, 63)" stroke="none" stroke-width="1px">0</text><text style="text-anchor: middle; visibility: hidden; font-family: &quot;Helvetica Neue&quot;, sans-serif; font-size: 12px; font-weight: 200;" x="44.704999923706055" y="0" dx="0em" dy="0.95em" fill="rgb(50, 49, 63)" stroke="none" stroke-width="1px">1k</text><text style="text-anchor: middle; visibility: hidden; font-family: &quot;Helvetica Neue&quot;, sans-serif; font-size: 12px; font-weight: 200;" x="67.05749988555908" y="0" dx="0em" dy="0.95em" fill="rgb(50, 49, 63)" stroke="none" stroke-width="1px">2k</text><text style="text-anchor: middle; visibility: hidden; font-family: &quot;Helvetica Neue&quot;, sans-serif; font-size: 12px; font-weight: 200;" x="89.40999984741211" y="0" dx="0em" dy="0.95em" fill="rgb(50, 49, 63)" stroke="none" stroke-width="1px">3k</text><text style="text-anchor: middle; visibility: hidden; font-family: &quot;Helvetica Neue&quot;, sans-serif; font-size: 12px; font-weight: 200;" x="111.76249980926514" y="0" dx="0em" dy="0.95em" fill="rgb(50, 49, 63)" stroke="none" stroke-width="1px">4k</text><text style="text-anchor: middle; visibility: hidden; font-family: &quot;Helvetica Neue&quot;, sans-serif; font-size: 12px; font-weight: 200;" x="134.11499977111816" y="0" dx="0em" dy="0.95em" fill="rgb(50, 49, 63)" stroke="none" stroke-width="1px">5k</text><text style="text-anchor: middle; visibility: hidden; font-family: &quot;Helvetica Neue&quot;, sans-serif; font-size: 12px; font-weight: 200;" x="156.4674997329712" y="0" dx="0em" dy="0.95em" fill="rgb(50, 49, 63)" stroke="none" stroke-width="1px">6k</text><text style="text-anchor: middle; visibility: hidden; font-family: &quot;Helvetica Neue&quot;, sans-serif; font-size: 12px; font-weight: 200;" x="178.81999969482422" y="0" dx="0em" dy="0.95em" fill="rgb(50, 49, 63)" stroke="none" stroke-width="1px">7k</text><text style="text-anchor: middle; visibility: hidden; font-family: &quot;Helvetica Neue&quot;, sans-serif; font-size: 12px; font-weight: 200;" x="201.17249965667725" y="0" dx="0em" dy="0.95em" fill="rgb(50, 49, 63)" stroke="none" stroke-width="1px">8k</text><text style="text-anchor: middle; visibility: hidden; font-family: &quot;Helvetica Neue&quot;, sans-serif; font-size: 12px; font-weight: 200;" x="223.52499961853027" y="0" dx="0em" dy="0.95em" fill="rgb(50, 49, 63)" stroke="none" stroke-width="1px">9k</text><text style="text-anchor: middle; visibility: hidden; font-family: &quot;Helvetica Neue&quot;, sans-serif; font-size: 12px; font-weight: 200;" x="245.8774995803833" y="0" dx="0em" dy="0.95em" fill="rgb(50, 49, 63)" stroke="none" stroke-width="1px">10k</text><text style="text-anchor: middle; visibility: hidden; font-family: &quot;Helvetica Neue&quot;, sans-serif; font-size: 12px; font-weight: 200;" x="268.2299995422363" y="0" dx="0em" dy="0.95em" fill="rgb(50, 49, 63)" stroke="none" stroke-width="1px">11k</text></g><line x1="0" y1="0" x2="268.2299995422363" y2="0" fill="rgb(0, 0, 0)" stroke="rgb(204, 204, 204)" stroke-width="1px"></line></g></g></g></g></svg>